# xmcd
#
# Track frame offsets: 
#        178
#        18723
#        37655
#        56608
#        75148
#        93668
#        111238
#        129100
#        147515
#        166690
#        186215
#        203880
#        221208
#
# Disc length: 3195 seconds
#
# Revision: 2
# Processed by: cddbd v1.5.2PL0 Copyright (c) Steve Scherf et al.
# Submitted via: ExactAudioCopy v0.99pb4
#
DISCID=ac0c790d
DTITLE=Coming Of Age - Comin' Correct
DYEAR=1900
DGENRE=R&B
TTITLE0=Should'A Been Me
TTITLE1=About You
TTITLE2=Forever (for the rest of my life)
TTITLE3=Sparkle
TTITLE4=Mama Said
TTITLE5=Fallin' in Love
TTITLE6=My Side Story
TTITLE7=Up on It
TTITLE8=All the Way
TTITLE9=Let Me
TTITLE10=Back-N-The-Hood
TTITLE11=It's How We Roll
TTITLE12=Loving You
EXTD=
EXTT0=
EXTT1=
EXTT2=
EXTT3=
EXTT4=
EXTT5=
EXTT6=
EXTT7=
EXTT8=
EXTT9=
EXTT10=
EXTT11=
EXTT12=
PLAYORDER=
